<?xml version="1.0" encoding="utf-8"?>
<!-- Svg Vector Icons : http://www.onlinewebfonts.com/icon -->
<!DOCTYPE svg PUBLIC "-//W3C//DTD SVG 1.1//EN" "http://www.w3.org/Graphics/SVG/1.1/DTD/svg11.dtd">
<svg version="1.1" xmlns="http://www.w3.org/2000/svg" xmlns:xlink="http://www.w3.org/1999/xlink" x="0px" y="0px" viewBox="0 0 256 256" enable-background="new 0 0 256 256" xml:space="preserve">
<metadata> Svg Vector Icons : http://www.onlinewebfonts.com/icon </metadata>
<g><g><path fill="#000000" d="M94.8,33.4L26.1,60.4c-3.5,1.5-6.4,2.4-9.9,4L10,66.7l0,103.8l13.2,6.2c16.6,8.7,36.5,17.3,52.5,25.9c4.2,2.2,8.9,4.2,13.2,6.5c7.7,4,19.6,9.2,26.3,12.9c2.2,1.2,4.1,2.1,6.3,3.2c5.6,2.8,3.5,2.5,12.7-3.5l25.9-17.3c-11.9-10.2-19.4-25.3-19.4-42.2c0-30.7,24.9-55.6,55.6-55.6c5,0,9.8,0.7,14.4,1.9c0-5.4,0-10.7,0-16V73c0-1.6,0.5-5.3-0.3-6.3L106.8,29.1C104.7,29.1,97.1,32.4,94.8,33.4L94.8,33.4z M85.7,53.6c1.9-1.1,10.3-4.1,13.1-5.3c7.4-3,5.7-3.6,13.4-0.8c9.1,3.3,17.7,6.3,26.8,9.7c4.5,1.7,9.1,3.4,13.5,4.8c4.3,1.4,8.9,3.3,13.2,4.8c2.9,1,25.6,9.1,26.5,9.9c-3.9,2.2-8.2,4.4-12.4,6.6c-8.8,4.7-6.6,4.6-12.9,2c-4.6-1.9-9.2-3.5-13.8-5.3L86.3,54C85.8,53.7,86,53.8,85.7,53.6L85.7,53.6z M37.2,73c1.1-1.3,19.7-8.1,21.8-9c2.7-1.1,4.5-2.5,7.3-1.3c13.1,5.7,30.3,11.6,43.9,17.1l43.7,17c-0.1,0.1-0.1,0.1-0.2,0.2l-20.2,10.9c-3.8,2-3,1.7-7.2,0.1c-10.1-4-19.7-7.5-29.6-11.6c-4.9-2-10.1-3.6-15-5.8C75.6,87.9,38.9,74.2,37.2,73L37.2,73z M125.6,208.9c-1.5,1.1-3.2-0.5-4.8-1.3c-1.6-0.9-3.2-1.5-4.8-2.3c-3.3-1.6-6.6-3.3-9.8-4.8l-39.3-19.3c-6.5-3.3-13-6.3-19.4-9.5c-6.5-3.3-13-6.5-19.7-9.6c-3.6-1.7-2.1-2.3-2.3-12.3c-0.2-14.5,0.2-28.8,0-43.6l0-28.8c0.9-0.1,16.9,6,19.2,7.1c8.1,3.5,22.6,9,31.1,12.2c11.8,4.4,26.1,10.6,37.7,14.7c2.3,0.8,4.1,1.7,6.4,2.5c1.8,0.7,4.5,1.4,5.9,2.5C126.4,122.8,125.9,208.3,125.6,208.9z"/><path fill="#000000" d="M48.7,160.4c3.7,2.2,52.6,25.1,53.9,25.3v-9.1c-1.2-0.9-5.1-2.5-6.6-3.3l-47.3-22.1L48.7,160.4z"/><path fill="#000000" d="M79.8,135c1.4,1.2,5,1.7,7.4,2.9l0.1,23c1.2,0.8,5.9,2.7,7.6,2.8c0.1-5.7-0.2-18.7,0.1-23.2l7.2,2.2c-0.7-2.3-9.7-20.1-11.1-22.2C88.8,123.6,81.1,132.6,79.8,135z"/><path fill="#000000" d="M49.2,124.1l7.2,2.6l0,21.1c2.1,0.8,5.5,2.4,7.6,2.7c0-3-0.5-19.6,0.3-20.9c1-0.7,5.6,1.8,7.3,1.9c-1.1-2.4-10.8-21-11.5-21.7C59.4,110.4,49.6,123.1,49.2,124.1z"/><path fill="#000000" d="M188.5,127.7c-0.6,0-1.8,0.5-2.5,0.7c-1.8,0.6-5.4,2.2-6.7,3.1c-3.7-2.5-4.4-6.8-10-6.8c-1.2,0-2.8,0.8-3.5,1.5l-4.9,4.9c-1.3,1.3-1.5,2.9-1.5,4.6c0,3.6,5.2,6.4,6.8,8.9c-1.1,1.6-3.6,7.3-3.8,9.3c-4.5,0-9.4-1-11.8,2c-0.6,0.8-1.4,2-1.4,3.3v7.6c0,1.3,0.7,2.4,1.3,3.2c2.4,3.1,7.2,2.1,11.9,2.1c0.2,2,2.7,7.7,3.8,9.3c-2.5,3.7-6.8,4.4-6.8,10c0,2.6,2.4,4.3,3.9,5.9c2.7,2.7,3.2,3.9,7.1,3.9c3.6,0,6.4-5.2,8.9-6.8c1.6,1.1,7.2,3.6,9.3,3.8c0,2.2-0.3,7.4,0.2,9.1c0.7,2.2,2.9,4.2,5.1,4.2h7.6c1.3,0,2.4-0.7,3.2-1.3c3.1-2.4,2.1-7.2,2.1-11.9c2-0.2,7.5-2.6,9.3-3.8c3.7,2.5,4.4,6.8,10,6.8c1.2,0,2.8-0.8,3.5-1.5l4.9-4.9c1.3-1.3,1.5-2.9,1.5-4.6c0-3.6-5.2-6.4-6.8-8.9c1.1-1.6,3.6-7.2,3.8-9.3c2.3,0,7.4,0.3,9.1-0.2c1-0.3,2.1-1,2.7-1.8c0.6-0.8,1.4-2,1.4-3.3v-7.6c0-2.2-2-4.4-4.2-5.1c-1.7-0.5-6.8-0.2-9.1-0.2c-0.1-1.2-1.1-3.7-1.6-4.9c-0.6-1.4-1.5-3.3-2.2-4.4c2.5-3.7,6.8-4.4,6.8-10c0-1.2-0.8-2.8-1.5-3.5l-4.9-4.9c-1.3-1.3-2.9-1.5-4.6-1.5c-3.6,0-6.4,5.2-8.9,6.8c-1.6-1.1-7.3-3.6-9.3-3.8c0-4.5,1-9.4-2-11.8c-0.8-0.6-2-1.4-3.3-1.4h-7.6c-2.2,0-4.4,2-5.1,4.2C188.2,120.3,188.5,125.5,188.5,127.7L188.5,127.7z M197.6,139.4c13,0,23.6,10.5,23.6,23.6s-10.5,23.6-23.6,23.6S174,175.9,174,162.9S184.6,139.4,197.6,139.4z"/></g></g>
</svg>